# This file uses centimeters as units for non-parametric coordinates.

mtllib Outside_Bend_LP.mtl
g default
v -1.000000 0.000000 0.000000
v -0.500000 0.000000 0.000000
v 0.000000 0.000000 0.000342
v -1.000000 1.000000 0.000000
v -0.500000 1.000000 0.000000
v 0.000000 0.515890 0.000396
v 0.182874 0.997672 -2.938961
v 0.507902 0.997312 -2.562253
v 0.833093 0.512680 -2.187168
v 0.179296 -0.002780 -2.935333
v 0.503609 -0.003177 -2.558204
v 0.833093 -0.003355 -2.187519
v 3.000000 0.991258 -4.002439
v 3.000000 0.991511 -3.500985
v 3.000000 0.507421 -3.000000
v 3.000000 0.000000 -4.002500
v 3.000000 0.000000 -3.501048
v 3.000000 0.000000 -3.000546
v -0.675371 0.999951 -1.637974
v -0.676054 -0.000114 -1.636702
v -0.226783 -0.000349 -1.428536
v 0.217814 -0.000620 -1.219665
v 0.217814 0.515323 -1.219469
v -0.225384 0.999780 -1.430362
v -0.916998 1.000000 -0.842662
v -0.916998 0.000000 -0.842662
v -0.427401 0.000000 -0.740260
v 0.055516 -0.000049 -0.631728
v 0.055516 0.515851 -0.631607
v -0.427401 1.000000 -0.741060
v -0.305627 -0.001046 -2.340167
v -0.303589 0.999202 -2.342692
v 0.089708 0.998847 -2.042935
v 0.479536 0.514223 -1.742823
v 0.479536 -0.001765 -1.743094
v 0.086926 -0.001455 -2.039930
v -0.979199 1.000000 -0.423406
v -0.979199 0.000000 -0.423406
v -0.481607 0.000000 -0.374221
v 0.013995 0.000000 -0.319573
v 0.013995 0.515890 -0.319487
v -0.481607 1.000000 -0.374221
v -0.813994 0.000000 -1.249559
v -0.813994 1.000000 -1.250351
v -0.341093 0.999974 -1.093939
v 0.123758 0.515663 -0.932498
v 0.123758 -0.000259 -0.932655
v -0.341884 -0.000076 -1.092710
v -0.504627 0.999686 -2.003128
v -0.506076 -0.000467 -2.001113
v -0.083411 -0.000813 -1.744843
v 0.336728 -0.001126 -1.490458
v 0.336728 0.514844 -1.490224
v -0.081345 0.999399 -1.747438
v -0.076708 -0.001828 -2.652117
v -0.073914 0.998520 -2.655221
v 0.286517 0.998142 -2.315045
v 0.645296 0.513496 -1.975615
v 0.645296 -0.002516 -1.975928
v 0.282986 -0.002252 -2.311497
v 1.435992 0.993574 -3.747772
v 1.435992 -0.007292 -3.747823
v 1.610151 -0.007332 -3.271165
v 1.785981 -0.006925 -2.798015
v 1.785981 0.509196 -2.797529
v 1.611383 0.993530 -3.274032
v 0.766721 0.995655 -3.413214
v 0.766721 -0.005020 -3.410681
v 1.014243 -0.005260 -2.971769
v 1.271175 -0.005175 -2.541989
v 1.271175 0.510906 -2.541565
v 1.020013 0.995417 -2.976709
v 0.465317 0.996695 -3.192644
v 0.461021 -0.003861 -3.188484
v 0.747711 -0.004194 -2.778709
v 1.042026 -0.004253 -2.376588
v 1.042026 0.511806 -2.376200
v 0.752759 0.996390 -2.783219
v 1.090521 -0.006180 -3.597400
v 1.090521 0.994597 -3.597353
v 1.307656 0.994442 -3.142242
v 1.519543 0.510021 -2.682268
v 1.519543 -0.006081 -2.682725
v 1.302126 -0.006325 -3.136240
v 2.182252 -0.009079 -3.942057
v 2.182252 0.991925 -3.941997
v 2.274461 0.992081 -3.445628
v 2.367276 0.507912 -2.950153
v 2.367276 -0.008237 -2.950682
v 2.274461 -0.008909 -3.445689
v 1.800201 0.992660 -3.863796
v 1.800201 -0.008284 -3.863850
v 1.934096 -0.008214 -3.374789
v 2.069118 -0.007660 -2.887373
v 2.069118 0.508476 -2.886863
v 1.934096 0.992725 -3.374744
v 2.582980 -0.009608 -3.987710
v 2.582980 0.991434 -3.987651
v 2.630608 0.991661 -3.487357
v 2.678396 0.507550 -2.987666
v 2.678396 -0.008607 -2.988208
v 2.630608 -0.009364 -3.487419
vt 0.394765 0.001190
vt 0.300796 0.001298
vt 0.676671 0.000865
vt 0.582702 0.000973
vt 0.904424 0.000603
vt 0.807469 0.000714
vt 0.808280 0.452092
vt 0.999204 0.451872
vt 0.395576 0.452568
vt 0.905235 0.451981
vt 0.301607 0.452676
vt 0.150676 0.248919
vt 0.998393 0.000494
vt 0.583514 0.452351
vt 0.252096 0.249595
vt 0.251398 0.354237
vt 0.049257 0.248242
vt 0.047904 0.451081
vt 0.677482 0.452243
vt 0.149324 0.451758
vt 0.582702 0.533739
vt 0.676671 0.533631
vt 0.677482 0.985009
vt 0.583514 0.985117
vt 0.807469 0.533480
vt 0.808280 0.984859
vt 0.249445 0.732053
vt 0.150105 0.732158
vt 0.149894 0.533480
vt 0.249234 0.533374
vt 0.050664 0.636081
vt 0.050555 0.533585
vt 0.395576 0.985334
vt 0.301607 0.985442
vt 0.300796 0.534064
vt 0.394765 0.533956
vt 0.999204 0.984639
vt 0.905235 0.984747
vt 0.904424 0.533369
vt 0.998393 0.533261
vt 0.583108 0.226662
vt 0.395171 0.226879
vt 0.301202 0.226987
vt 0.998798 0.226183
vt 0.904829 0.226292
vt 0.807874 0.226403
vt 0.677077 0.226554
vt 0.582905 0.113818
vt 0.394968 0.114034
vt 0.300999 0.114142
vt 0.998595 0.113339
vt 0.904627 0.113447
vt 0.807672 0.113559
vt 0.676874 0.113709
vt 0.395373 0.339723
vt 0.583311 0.339507
vt 0.677280 0.339398
vt 0.808077 0.339248
vt 0.905032 0.339136
vt 0.301404 0.339831
vt 0.999001 0.339028
vt 0.582804 0.057395
vt 0.394866 0.057612
vt 0.300897 0.057720
vt 0.998494 0.056917
vt 0.904525 0.057025
vt 0.807570 0.057136
vt 0.676773 0.057287
vt 0.395069 0.170456
vt 0.583007 0.170240
vt 0.676976 0.170132
vt 0.807773 0.169981
vt 0.904728 0.169869
vt 0.301100 0.170565
vt 0.998697 0.169761
vt 0.583209 0.283084
vt 0.395272 0.283301
vt 0.301303 0.283409
vt 0.998900 0.282606
vt 0.904931 0.282714
vt 0.807976 0.282826
vt 0.677178 0.282976
vt 0.395475 0.396145
vt 0.583412 0.395929
vt 0.677381 0.395821
vt 0.808178 0.395670
vt 0.905134 0.395559
vt 0.301506 0.396254
vt 0.999103 0.395450
vt 0.583108 0.759428
vt 0.395171 0.759645
vt 0.301202 0.759753
vt 0.998798 0.758950
vt 0.904829 0.759058
vt 0.807874 0.759169
vt 0.677077 0.759320
vt 0.582905 0.646584
vt 0.394968 0.646800
vt 0.300999 0.646909
vt 0.998595 0.646105
vt 0.904627 0.646213
vt 0.807672 0.646325
vt 0.676874 0.646476
vt 0.582804 0.590162
vt 0.394866 0.590378
vt 0.300897 0.590486
vt 0.998494 0.589683
vt 0.904525 0.589791
vt 0.807570 0.589903
vt 0.676773 0.590053
vt 0.395069 0.703223
vt 0.583007 0.703006
vt 0.676976 0.702898
vt 0.807773 0.702747
vt 0.904728 0.702636
vt 0.301100 0.703331
vt 0.998697 0.702527
vt 0.395373 0.872489
vt 0.583311 0.872273
vt 0.677280 0.872165
vt 0.808077 0.872014
vt 0.905032 0.871902
vt 0.301404 0.872598
vt 0.999001 0.871794
vt 0.583209 0.815851
vt 0.395272 0.816067
vt 0.301303 0.816175
vt 0.998900 0.815372
vt 0.904931 0.815480
vt 0.807976 0.815592
vt 0.677178 0.815742
vt 0.395475 0.928912
vt 0.583412 0.928695
vt 0.677381 0.928587
vt 0.808178 0.928436
vt 0.905134 0.928325
vt 0.301506 0.929020
vt 0.999103 0.928216
vn 0.000000 0.000000 1.000000
vn -0.000326 -0.000015 1.000000
vn -0.000211 -0.000010 1.000000
vn 0.000000 0.000000 1.000000
vn -0.000756 -0.000036 1.000000
vn -0.000756 -0.000036 1.000000
vn 0.000000 1.000000 0.000000
vn 0.401211 0.915794 0.018721
vn 0.399181 0.916112 0.037341
vn 0.000000 1.000000 0.000000
vn 0.695887 0.717416 0.032471
vn 0.694203 0.716889 0.064433
vn 0.000000 -1.000000 0.000000
vn -0.000014 -1.000000 0.000014
vn 0.000000 -1.000000 0.000000
vn 0.000000 -1.000000 0.000000
vn -0.000030 -1.000000 0.000031
vn 0.000000 -1.000000 0.000000
vn 0.999044 -0.000006 0.043706
vn 0.996164 -0.000016 0.087508
vn 0.996165 -0.000016 0.087494
vn 0.999044 -0.000006 0.043706
vn -0.995184 0.000000 -0.098026
vn -0.995184 0.000000 -0.098026
vn -0.998795 0.000000 -0.049068
vn -0.998795 0.000000 -0.049068
vn 0.002564 0.999996 -0.001152
vn 0.280881 0.909287 0.307089
vn 0.253445 0.916330 0.310008
vn 0.002653 0.999996 -0.001127
vn 0.470049 0.715289 0.517122
vn 0.440919 0.717003 0.539904
vn 1.000000 0.000000 0.000000
vn 1.000000 0.000000 0.000000
vn 1.000000 0.000000 0.000000
vn 1.000000 0.000000 0.000000
vn 1.000000 0.000000 0.000000
vn 1.000000 0.000000 0.000000
vn -0.002926 -0.999995 0.001246
vn -0.002800 -0.999995 0.001498
vn -0.002729 -0.999995 0.001520
vn -0.002839 -0.999995 0.001278
vn -0.002649 -0.999995 0.001806
vn -0.002604 -0.999995 0.001795
vn 0.670943 -0.000531 0.741509
vn 0.628876 -0.000585 0.777505
vn 0.629076 -0.000585 0.777344
vn 0.670943 -0.000531 0.741509
vn -0.629687 -0.000851 -0.776848
vn -0.629845 -0.000849 -0.776721
vn -0.668298 -0.000266 -0.743894
vn -0.668298 -0.000266 -0.743894
vn -0.741646 0.000105 -0.670791
vn -0.775085 0.000194 -0.631857
vn -0.775001 0.000194 -0.631960
vn -0.741646 0.000105 -0.670791
vn -0.002530 -0.999996 0.001267
vn -0.002471 -0.999996 0.001458
vn -0.002278 -0.999996 0.001410
vn -0.002328 -0.999997 0.001221
vn -0.002392 -0.999996 0.001718
vn -0.002228 -0.999996 0.001644
vn 0.782608 -0.000378 0.622514
vn 0.782471 -0.000378 0.622687
vn 0.747877 -0.000426 0.663837
vn 0.747877 -0.000426 0.663837
vn 0.315537 0.915116 0.250998
vn 0.549524 0.712639 0.436085
vn 0.524486 0.713064 0.465246
vn 0.291281 0.921545 0.256730
vn 0.002060 0.999997 -0.001080
vn 0.002258 0.999997 -0.001129
vn -0.925129 0.000121 -0.379653
vn -0.925151 0.000121 -0.379600
vn -0.956871 -0.000062 -0.290514
vn -0.956859 -0.000062 -0.290552
vn -0.000770 -1.000000 0.000545
vn -0.000878 -0.999999 0.000707
vn -0.000414 -1.000000 0.000367
vn -0.000291 -1.000000 0.000221
vn -0.001018 -0.999999 0.000909
vn -0.000562 -1.000000 0.000542
vn 0.963952 -0.000083 0.266077
vn 0.963933 -0.000083 0.266146
vn 0.934195 -0.000137 0.356762
vn 0.934234 -0.000137 0.356660
vn 0.386995 0.915437 0.110501
vn 0.675262 0.712348 0.191264
vn 0.655829 0.710928 0.253909
vn 0.376094 0.914906 0.146628
vn 0.000169 1.000000 -0.000128
vn 0.000568 1.000000 -0.000400
vn -0.884621 0.000307 -0.466311
vn -0.884661 0.000307 -0.466234
vn 0.360715 0.914629 0.182589
vn 0.001097 0.999999 -0.000705
vn 0.628450 0.710601 0.316381
vn 0.894375 -0.000204 0.447319
vn 0.894441 -0.000204 0.447186
vn -0.001388 -0.999999 0.001019
vn -0.001465 -0.999998 0.001222
vn -0.001333 -0.999999 0.000857
vn -0.980605 -0.000048 -0.195997
vn -0.980605 -0.000048 -0.195997
vn -0.000050 -1.000000 0.000038
vn -0.000118 -1.000000 0.000115
vn -0.000197 -1.000000 0.000204
vn 0.984343 -0.000043 0.176262
vn 0.984350 -0.000043 0.176226
vn 0.687589 0.714668 0.128340
vn 0.394274 0.915991 0.074216
vn 0.000017 1.000000 -0.000013
vn -0.834567 0.000314 -0.550907
vn -0.834623 0.000314 -0.550822
vn -0.001864 -0.999998 0.001084
vn -0.001865 -0.999997 0.001254
vn -0.001877 -0.999997 0.001467
vn 0.843879 -0.000285 0.536534
vn 0.843979 -0.000285 0.536376
vn 0.592989 0.711223 0.377527
vn 0.340508 0.914706 0.217642
vn 0.001609 0.999998 -0.000935
vn -0.035442 0.000060 -0.999372
vn -0.074078 0.000060 -0.997252
vn -0.073828 0.000060 -0.997271
vn -0.035442 0.000060 -0.999372
vn 0.024085 -0.999710 -0.000902
vn 0.024948 -0.999689 -0.000712
vn 0.012084 -0.999927 0.000154
vn 0.011444 -0.999935 -0.000158
vn 0.025980 -0.999662 -0.000485
vn 0.012778 -0.999918 0.000526
vn 0.078753 -0.001046 0.996894
vn 0.079063 -0.001046 0.996869
vn 0.038343 -0.001061 0.999264
vn 0.038343 -0.001061 0.999264
vn 0.031996 0.915162 0.401815
vn 0.053949 0.719843 0.692037
vn 0.026382 0.719051 0.694456
vn 0.015550 0.914669 0.403905
vn 0.000768 1.000000 -0.000521
vn 0.000396 1.000000 -0.000498
vn -0.351566 0.000048 -0.936163
vn -0.351403 0.000048 -0.936224
vn -0.448415 -0.000513 -0.893826
vn -0.448597 -0.000516 -0.893734
vn -0.002640 -0.999996 0.000889
vn -0.002484 -0.999996 0.001263
vn -0.002753 -0.999995 0.001366
vn -0.002910 -0.999995 0.001032
vn -0.002293 -0.999996 0.001718
vn -0.002557 -0.999995 0.001772
vn 0.445353 -0.000791 0.895355
vn 0.445145 -0.000791 0.895458
vn 0.348830 -0.000881 0.937186
vn 0.349013 -0.000880 0.937117
vn 0.180029 0.917446 0.354800
vn 0.311752 0.722117 0.617541
vn 0.242429 0.723179 0.646715
vn 0.140869 0.917366 0.372284
vn 0.002671 0.999996 -0.000945
vn 0.002429 0.999997 -0.000815
vn -0.544121 -0.001260 -0.839006
vn -0.544029 -0.001260 -0.839066
vn -0.003004 -0.999995 0.001158
vn -0.002856 -0.999995 0.001451
vn -0.002675 -0.999995 0.001807
vn 0.539558 -0.000691 0.841948
vn 0.539771 -0.000691 0.841812
vn 0.378492 0.719612 0.582153
vn 0.218381 0.916602 0.334889
vn 0.002742 0.999996 -0.001055
vn -0.251948 0.000053 -0.967741
vn -0.251801 0.000053 -0.967779
vn 0.102805 0.916675 0.386184
vn 0.002021 0.999998 -0.000692
vn 0.175578 0.722535 0.668667
vn 0.253910 -0.000954 0.967227
vn 0.254053 -0.000954 0.967190
vn -0.002052 -0.999997 0.001160
vn -0.001883 -0.999997 0.001658
vn -0.002191 -0.999997 0.000750
vn -0.156325 0.000058 -0.987706
vn -0.156235 0.000058 -0.987720
vn -0.001578 -0.999999 0.000637
vn -0.001468 -0.999998 0.001077
vn -0.001341 -0.999998 0.001607
vn 0.163204 -0.001008 0.986592
vn 0.163298 -0.001008 0.986576
vn 0.112512 0.721144 0.683588
vn 0.066346 0.915856 0.395987
vn 0.001460 0.999999 -0.000589
s 1
g Outside_Bend_LP
usemtl initialShadingGroup
f 1/17/1 2/12/2 5/20/3 4/18/4
f 2/12/2 3/15/5 6/16/6 5/20/3
s 2
f 4/4/7 5/3/8 42/68/9 37/62/10
f 5/3/8 6/6/11 41/67/12 42/68/9
s 3
f 38/63/13 39/64/14 2/2/15 1/1/16
f 39/65/14 40/66/17 3/5/18 2/13/15
s 4
f 3/5/19 40/66/20 41/67/21 6/6/22
s 5
f 37/62/23 38/63/24 1/1/25 4/4/26
s 6
f 7/21/27 8/22/28 78/110/29 73/104/30
f 8/22/28 9/25/31 77/109/32 78/110/29
s 7
f 13/27/33 14/28/34 17/29/35 16/30/36
f 14/28/34 15/31/37 18/32/38 17/29/35
s 8
f 74/105/39 75/106/40 11/35/41 10/36/42
f 75/107/40 76/108/43 12/39/44 11/40/41
s 9
f 12/39/45 76/108/46 77/109/47 9/25/48
s 10
f 73/104/49 74/105/50 10/36/51 7/21/52
s 5
f 10/9/53 55/83/54 56/84/55 7/14/56
s 3
f 10/9/57 11/11/58 60/88/59 55/83/60
f 11/8/58 12/10/61 59/87/62 60/89/59
s 4
f 58/86/63 59/87/64 12/10/65 9/7/66
s 2
f 57/85/67 58/86/68 9/7/69 8/19/70
f 56/84/71 57/85/67 8/19/70 7/14/72
s 5
f 19/41/73 20/42/74 43/69/75 44/70/76
s 3
f 20/42/77 21/43/78 48/74/79 43/69/80
f 21/44/78 22/45/81 47/73/82 48/75/79
s 4
f 46/72/83 47/73/84 22/45/85 23/46/86
s 2
f 45/71/87 46/72/88 23/46/89 24/47/90
f 44/70/91 45/71/87 24/47/90 19/41/92
s 5
f 49/76/93 50/77/94 20/42/74 19/41/73
s 2
f 19/41/92 24/47/90 54/82/95 49/76/96
f 24/47/90 23/46/89 53/81/97 54/82/95
s 4
f 23/46/86 22/45/85 52/80/98 53/81/99
s 3
f 51/79/100 52/80/101 22/45/81 21/44/78
f 50/77/102 51/78/100 21/43/78 20/42/77
s 5
f 25/48/103 26/49/104 38/63/24 37/62/23
s 3
f 26/49/105 27/50/106 39/64/14 38/63/13
f 27/51/106 28/52/107 40/66/17 39/65/14
s 4
f 41/67/21 40/66/20 28/52/108 29/53/109
s 2
f 42/68/9 41/67/12 29/53/110 30/54/111
f 37/62/10 42/68/9 30/54/111 25/48/112
s 5
f 44/70/76 43/69/75 26/49/104 25/48/103
s 2
f 25/48/112 30/54/111 45/71/87 44/70/91
f 30/54/111 29/53/110 46/72/88 45/71/87
s 4
f 29/53/109 28/52/108 47/73/84 46/72/83
s 3
f 48/75/79 47/73/82 28/52/107 27/51/106
f 43/69/80 48/74/79 27/50/106 26/49/105
s 5
f 32/56/113 31/55/114 50/77/94 49/76/93
s 3
f 31/55/115 36/60/116 51/78/100 50/77/102
f 36/61/116 35/59/117 52/80/101 51/79/100
s 4
f 53/81/99 52/80/98 35/59/118 34/58/119
s 2
f 54/82/95 53/81/97 34/58/120 33/57/121
f 49/76/96 54/82/95 33/57/121 32/56/122
s 5
f 56/84/55 55/83/54 31/55/114 32/56/113
s 2
f 32/56/122 33/57/121 57/85/67 56/84/71
f 33/57/121 34/58/120 58/86/68 57/85/67
s 4
f 34/58/119 35/59/118 59/87/64 58/86/63
s 3
f 60/89/59 59/87/62 35/59/117 36/61/116
f 55/83/60 60/88/59 36/60/116 31/55/115
s 10
f 16/33/123 97/132/124 98/133/125 13/24/126
s 8
f 16/33/127 17/34/128 102/137/129 97/132/130
f 17/37/128 18/38/131 101/136/132 102/138/129
s 9
f 100/135/133 101/136/134 18/38/135 15/26/136
s 6
f 99/134/137 100/135/138 15/26/139 14/23/140
f 98/133/141 99/134/137 14/23/140 13/24/142
s 10
f 61/90/143 62/91/144 79/111/145 80/112/146
s 8
f 62/91/147 63/92/148 84/116/149 79/111/150
f 63/93/148 64/94/151 83/115/152 84/117/149
s 9
f 82/114/153 83/115/154 64/94/155 65/95/156
s 6
f 81/113/157 82/114/158 65/95/159 66/96/160
f 80/112/161 81/113/157 66/96/160 61/90/162
s 10
f 67/97/163 68/98/164 74/105/50 73/104/49
s 8
f 68/98/165 69/99/166 75/106/40 74/105/39
f 69/100/166 70/101/167 76/108/43 75/107/40
s 9
f 77/109/47 76/108/46 70/101/168 71/102/169
s 6
f 78/110/29 77/109/32 71/102/170 72/103/171
f 73/104/30 78/110/29 72/103/171 67/97/172
s 10
f 80/112/146 79/111/145 68/98/164 67/97/163
s 6
f 67/97/172 72/103/171 81/113/157 80/112/161
f 72/103/171 71/102/170 82/114/158 81/113/157
s 9
f 71/102/169 70/101/168 83/115/154 82/114/153
s 8
f 84/117/149 83/115/152 70/101/167 69/100/166
f 79/111/150 84/116/149 69/99/166 68/98/165
s 10
f 91/125/173 92/126/174 62/91/144 61/90/143
s 6
f 61/90/162 66/96/160 96/131/175 91/125/176
f 66/96/160 65/95/159 95/130/177 96/131/175
s 9
f 65/95/156 64/94/155 94/129/178 95/130/179
s 8
f 93/128/180 94/129/181 64/94/151 63/93/148
f 92/126/182 93/127/180 63/92/148 62/91/147
s 10
f 86/119/183 85/118/184 92/126/174 91/125/173
s 8
f 85/118/185 90/123/186 93/127/180 92/126/182
f 90/124/186 89/122/187 94/129/181 93/128/180
s 9
f 95/130/179 94/129/178 89/122/188 88/121/189
s 6
f 96/131/175 95/130/177 88/121/190 87/120/191
f 91/125/176 96/131/175 87/120/191 86/119/192
s 10
f 98/133/125 97/132/124 85/118/184 86/119/183
s 6
f 86/119/192 87/120/191 99/134/137 98/133/141
f 87/120/191 88/121/190 100/135/138 99/134/137
s 9
f 88/121/189 89/122/188 101/136/134 100/135/133
s 8
f 102/138/129 101/136/132 89/122/187 90/124/186
f 97/132/130 102/137/129 90/123/186 85/118/185
