# This file uses centimeters as units for non-parametric coordinates.

mtllib Wall_LP.mtl
g default
v -1.000000 0.000000 0.000000
v -0.500000 0.000000 0.000000
v 0.000000 0.000000 0.000000
v -1.000000 1.000000 0.000000
v -0.500000 1.000000 0.000000
v 0.000000 0.515890 0.000000
v -1.000000 1.000000 -3.000000
v -0.500000 1.000000 -3.000000
v 0.000000 0.515890 -3.000000
v -1.000000 0.000000 -3.000000
v -0.500000 0.000000 -3.000000
v 0.000000 0.000000 -3.000000
vt 0.394765 0.001190
vt 0.300796 0.001298
vt 0.676671 0.000865
vt 0.582702 0.000973
vt 0.904424 0.000603
vt 0.807469 0.000714
vt 0.150105 0.199392
vt 0.249445 0.199287
vt 0.808280 0.452092
vt 0.999204 0.451872
vt 0.395576 0.452568
vt 0.905235 0.451981
vt 0.149894 0.000713
vt 0.301607 0.452676
vt 0.150676 0.248919
vt 0.998393 0.000494
vt 0.050664 0.103315
vt 0.050555 0.000819
vt 0.583514 0.452351
vt 0.249234 0.000608
vt 0.252096 0.249595
vt 0.251398 0.354237
vt 0.049257 0.248242
vt 0.047904 0.451081
vt 0.677482 0.452243
vt 0.149324 0.451758
vn 0.000000 0.000000 1.000000
vn 0.000000 0.000000 1.000000
vn 0.000000 0.000000 1.000000
vn 0.000000 0.000000 1.000000
vn 0.000000 0.000000 1.000000
vn 0.000000 0.000000 1.000000
vn 0.000000 1.000000 0.000000
vn 0.435735 0.900075 0.000000
vn 0.435735 0.900075 0.000000
vn 0.000000 1.000000 0.000000
vn 0.695599 0.718430 0.000000
vn 0.695599 0.718430 0.000000
vn 0.000000 0.000000 -1.000000
vn 0.000000 0.000000 -1.000000
vn 0.000000 0.000000 -1.000000
vn 0.000000 0.000000 -1.000000
vn 0.000000 0.000000 -1.000000
vn 0.000000 0.000000 -1.000000
vn 0.000000 -1.000000 0.000000
vn 0.000000 -1.000000 0.000000
vn 0.000000 -1.000000 0.000000
vn 0.000000 -1.000000 0.000000
vn 0.000000 -1.000000 0.000000
vn 0.000000 -1.000000 0.000000
vn 1.000000 0.000000 0.000000
vn 1.000000 0.000000 0.000000
vn 1.000000 0.000000 0.000000
vn 1.000000 0.000000 0.000000
vn -1.000000 0.000000 0.000000
vn -1.000000 0.000000 0.000000
vn -1.000000 0.000000 0.000000
vn -1.000000 0.000000 0.000000
s 1
g Wall_LP
usemtl initialShadingGroup
f 1/23/1 2/15/2 5/26/3 4/24/4
f 2/15/2 3/21/5 6/22/6 5/26/3
s 2
f 4/4/7 5/3/8 8/25/9 7/19/10
f 5/3/8 6/6/11 9/9/12 8/25/9
s 3
f 7/8/13 8/7/14 11/13/15 10/20/16
f 8/7/14 9/17/17 12/18/18 11/13/15
s 4
f 10/11/19 11/14/20 2/2/21 1/1/22
f 11/10/20 12/12/23 3/5/24 2/16/21
s off
f 3/5/25 12/12/26 9/9/27 6/6/28
f 10/11/29 1/1/30 4/4/31 7/19/32
