# This file uses centimeters as units for non-parametric coordinates.

mtllib Wall_HP.mtl
g default
v -0.996200 0.014180 -0.028360
v -0.985820 0.003800 -0.028360
v -0.971640 0.000000 -0.028360
v -0.971640 0.003800 -0.014180
v -0.971640 0.014180 -0.003800
v -0.971640 0.028360 0.000000
v -0.985820 0.028360 -0.003800
v -0.996200 0.028360 -0.014180
v -1.000000 0.028360 -0.028360
v -0.500000 0.028360 0.000000
v -0.500000 0.014180 -0.003800
v -0.500000 0.003800 -0.014180
v -0.500000 0.000000 -0.028360
v -0.014180 0.003800 -0.028352
v -0.003800 0.014180 -0.028352
v 0.000000 0.028360 -0.028360
v -0.003800 0.028360 -0.014180
v -0.014180 0.028360 -0.003800
v -0.028360 0.028360 0.000000
v -0.028374 0.014180 -0.003800
v -0.028374 0.003800 -0.014180
v -0.028360 0.000000 -0.028360
v -0.985820 0.996200 -0.028351
v -0.996200 0.985820 -0.028351
v -1.000000 0.971640 -0.028360
v -0.996200 0.971625 -0.014180
v -0.985820 0.971625 -0.003800
v -0.971640 0.971640 0.000000
v -0.971640 0.985820 -0.003800
v -0.971640 0.996200 -0.014180
v -0.971640 1.000000 -0.028360
v -0.495281 0.992929 -0.029174
v -0.508309 0.998203 -0.029174
v -0.522248 1.000000 -0.029165
v -0.522557 0.995087 -0.014257
v -0.518402 0.985122 -0.003531
v -0.510962 0.972919 0.000000
v -0.497128 0.976527 -0.003535
v -0.487212 0.980796 -0.014261
v -0.484016 0.984524 -0.029165
v -0.001875 0.507453 -0.029157
v -0.007365 0.520412 -0.029157
v -0.016082 0.531461 -0.029149
v -0.019622 0.528209 -0.014283
v -0.023676 0.518258 -0.003569
v -0.027108 0.504404 0.000000
v -0.014780 0.497222 -0.003564
v -0.004810 0.493212 -0.014280
v 0.000000 0.493505 -0.029149
v -0.985820 0.971625 -2.996201
v -0.996200 0.971625 -2.985820
v -1.000000 0.971640 -2.971640
v -0.996200 0.985820 -2.971644
v -0.985820 0.996200 -2.971644
v -0.971640 1.000000 -2.971640
v -0.971640 0.996200 -2.985820
v -0.971640 0.985820 -2.996200
v -0.971640 0.971640 -3.000000
v -0.518284 0.985107 -2.996543
v -0.522327 0.995075 -2.985962
v -0.521941 1.000000 -2.971237
v -0.508166 0.998204 -2.971098
v -0.495243 0.992927 -2.970961
v -0.484016 0.984524 -2.970835
v -0.487212 0.980796 -2.985739
v -0.497128 0.976527 -2.996465
v -0.510962 0.972919 -3.000000
v -0.004821 0.493439 -2.985934
v -0.014794 0.497338 -2.996507
v -0.027108 0.504404 -3.000000
v -0.023603 0.518167 -2.996503
v -0.019468 0.528043 -2.985930
v -0.015865 0.531250 -2.971245
v -0.007266 0.520351 -2.971244
v -0.001849 0.507567 -2.971244
v 0.000000 0.493807 -2.971245
v -0.985820 0.003800 -2.971640
v -0.996200 0.014180 -2.971640
v -1.000000 0.028360 -2.971640
v -0.996200 0.028360 -2.985820
v -0.985820 0.028360 -2.996200
v -0.971640 0.028360 -3.000000
v -0.971640 0.014180 -2.996200
v -0.971640 0.003800 -2.985820
v -0.971640 0.000000 -2.971640
v -0.500000 0.028360 -3.000000
v -0.500000 0.014180 -2.996200
v -0.500000 0.003800 -2.985820
v -0.500000 0.000000 -2.971640
v -0.003800 0.014180 -2.971644
v -0.014180 0.003800 -2.971644
v -0.028360 0.000000 -2.971640
v -0.028374 0.003800 -2.985820
v -0.028374 0.014180 -2.996201
v -0.028360 0.028360 -3.000000
v -0.014180 0.028360 -2.996200
v -0.003800 0.028360 -2.985820
v 0.000000 0.028360 -2.971640
v -0.994068 0.016106 -0.016106
v -0.983894 0.005932 -0.016106
v -0.983894 0.016106 -0.005932
v -0.016100 0.005933 -0.016105
v -0.005925 0.016108 -0.016103
v -0.016108 0.016106 -0.005933
v -0.983891 0.994076 -0.016103
v -0.994067 0.983901 -0.016105
v -0.983894 0.983893 -0.005934
v -0.496349 0.989175 -0.016243
v -0.510125 0.994752 -0.016246
v -0.505732 0.985840 -0.005578
v -0.005226 0.505634 -0.016268
v -0.011015 0.519295 -0.016265
v -0.014191 0.509877 -0.005625
v -0.983894 0.983893 -2.994065
v -0.994067 0.983901 -2.983892
v -0.983891 0.994076 -2.983894
v -0.505667 0.985831 -2.994477
v -0.509999 0.994745 -2.983917
v -0.496314 0.989168 -2.983840
v -0.005214 0.505729 -2.983975
v -0.014161 0.509889 -2.994483
v -0.010939 0.519238 -2.983978
v -0.983894 0.005932 -2.983894
v -0.994068 0.016106 -2.983894
v -0.983894 0.016106 -2.994068
v -0.005925 0.016108 -2.983895
v -0.016100 0.005933 -2.983892
v -0.016108 0.016106 -2.994066
vt 0.389443 0.005463
vt 0.300804 0.005565
vt 0.054971 0.254033
vt 0.909761 0.004864
vt 0.899101 0.004876
vt 0.053695 0.445367
vt 0.245915 0.351871
vt 0.811684 0.005095
vt 0.400898 0.448295
vt 0.588836 0.448078
vt 0.673351 0.447920
vt 0.681656 0.447850
vt 0.804122 0.447771
vt 0.812422 0.447761
vt 0.899897 0.447720
vt 0.999196 0.447605
vt 0.910557 0.447708
vt 0.056196 0.006447
vt 0.150638 0.254671
vt 0.246305 0.255309
vt 0.147137 0.446250
vt 0.588040 0.005234
vt 0.672498 0.005258
vt 0.680860 0.005248
vt 0.803270 0.005104
vt 0.243804 0.193658
vt 0.152278 0.194010
vt 0.056047 0.101028
vt 0.149900 0.006348
vt 0.390238 0.448307
vt 0.301600 0.448409
vt 0.998400 0.004761
vt 0.400103 0.005450
vt 0.577380 0.005246
vt 0.578176 0.448090
vt 0.243605 0.006248
vt 0.396547 0.005430
vt 0.392997 0.005434
vt 0.150676 0.248919
vt 0.390939 0.001194
vt 0.106829 0.248191
vt 0.104863 0.249807
vt 0.398500 0.001185
vt 0.150676 0.248919
vt 0.150663 0.251792
vt 0.998393 0.000494
vt 0.150676 0.248919
vt 0.300796 0.001298
vt 0.906201 0.004841
vt 0.902654 0.004845
vt 0.150676 0.248919
vt 0.900688 0.000607
vt 0.207661 0.248452
vt 0.207585 0.248797
vt 0.908252 0.000598
vt 0.150676 0.248919
vt 0.584492 0.005212
vt 0.580934 0.005216
vt 0.150676 0.248919
vt 0.578783 0.000978
vt 0.105493 0.344643
vt 0.108722 0.342098
vt 0.586348 0.000969
vt 0.150676 0.248919
vt 0.678066 0.005231
vt 0.675280 0.005234
vt 0.150676 0.248919
vt 0.672180 0.000870
vt 0.154548 0.350761
vt 0.152799 0.352118
vt 0.679827 0.000861
vt 0.150676 0.248919
vt 0.808898 0.005077
vt 0.806087 0.005080
vt 0.150676 0.248919
vt 0.804202 0.000718
vt 0.206591 0.301499
vt 0.207798 0.300494
vt 0.811842 0.000709
vt 0.150676 0.248919
vt 0.196099 0.170505
vt 0.580505 0.452355
vt 0.150051 0.148132
vt 0.581739 0.448106
vt 0.585296 0.448095
vt 0.588441 0.450229
vt 0.150055 0.152144
vt 0.588095 0.452346
vt 0.675027 0.452246
vt 0.150104 0.198094
vt 0.673782 0.450154
vt 0.676110 0.447895
vt 0.678875 0.447871
vt 0.681166 0.450106
vt 0.150104 0.197887
vt 0.679919 0.452240
vt 0.150017 0.115644
vt 0.813096 0.452087
vt 0.101337 0.107649
vt 0.805550 0.452095
vt 0.150021 0.120304
vt 0.797220 0.446689
vt 0.804979 0.446896
vt 0.808714 0.447342
vt 0.393797 0.448328
vt 0.397346 0.448324
vt 0.149949 0.052527
vt 0.399631 0.452563
vt 0.198037 0.032303
vt 0.199202 0.033012
vt 0.392045 0.452572
vt 0.149945 0.048517
vt 0.149904 0.003561
vt 0.301607 0.452676
vt 0.149894 0.000713
vt 0.999204 0.451872
vt 0.903453 0.447741
vt 0.906999 0.447737
vt 0.149953 0.056234
vt 0.909298 0.451976
vt 0.113795 0.036939
vt 0.113873 0.039275
vt 0.901753 0.451985
vt 0.149958 0.060894
vt 0.150676 0.248919
vt 0.396095 0.001188
vt 0.150676 0.248919
vt 0.393345 0.001191
vt 0.222348 0.150865
vt 0.150676 0.248919
vt 0.905843 0.000601
vt 0.150676 0.248919
vt 0.903093 0.000604
vt 0.480794 0.150466
vt 0.150676 0.248919
vt 0.583943 0.000972
vt 0.150676 0.248919
vt 0.581193 0.000975
vt 0.297502 0.203351
vt 0.150676 0.248919
vt 0.677427 0.000864
vt 0.150676 0.248919
vt 0.674587 0.000867
vt 0.361956 0.216787
vt 0.150676 0.248919
vt 0.809437 0.000712
vt 0.150676 0.248919
vt 0.806601 0.000715
vt 0.448631 0.183839
vt 0.585681 0.452349
vt 0.150054 0.150868
vt 0.582922 0.452352
vt 0.150052 0.149410
vt 0.585405 0.450626
vt 0.677482 0.452243
vt 0.150105 0.199392
vt 0.676068 0.449876
vt 0.678887 0.449872
vt 0.810722 0.452090
vt 0.150018 0.117110
vt 0.807974 0.452093
vt 0.150020 0.118807
vt 0.502015 0.310105
vt 0.149947 0.049792
vt 0.394459 0.452569
vt 0.149948 0.051251
vt 0.397218 0.452566
vt 0.274341 0.199775
vt 0.149957 0.059413
vt 0.904152 0.451982
vt 0.149955 0.057719
vt 0.906895 0.451979
vt 0.428827 0.202912
vn -0.007811 -0.999969 0.001275
vn -0.499986 -0.866033 0.000963
vn -0.499986 -0.866033 -0.000963
vn -0.007811 -0.999969 -0.001275
vn -0.707107 -0.707106 0.000954
vn -0.707107 -0.707106 -0.000954
vn -0.965949 -0.258729 0.000905
vn -0.999991 -0.003964 0.001280
vn -0.999991 -0.003964 -0.001280
vn -0.965949 -0.258729 -0.000905
vn -0.007874 -0.003981 0.999961
vn -0.005886 -0.499906 0.866060
vn -0.000000 -0.499999 0.866026
vn -0.000000 -0.004532 0.999990
vn -0.005886 -0.866060 0.499906
vn 0.000000 -0.866026 0.499999
vn 0.000000 -0.999999 0.001285
vn -0.866047 -0.002979 0.499954
vn -0.866087 0.002976 0.499885
vn -0.999991 0.003965 0.001279
vn -0.707104 -0.002953 0.707104
vn -0.707103 0.002952 0.707105
vn -0.258538 -0.002802 0.965997
vn -0.007874 0.003718 0.999962
vn -0.258540 0.002800 0.965997
vn 0.999968 -0.007920 0.001443
vn 0.965950 -0.258727 0.000905
vn 0.965950 -0.258727 -0.000904
vn 0.999968 -0.007916 -0.001444
vn 0.707106 -0.707106 0.000953
vn 0.500029 -0.866008 0.000963
vn 0.500007 -0.866021 -0.000963
vn 0.707106 -0.707106 -0.000953
vn 0.007814 -0.999969 0.001275
vn 0.007813 -0.999969 -0.001275
vn 0.005049 -0.005212 0.999974
vn 0.266737 -0.006316 0.963749
vn 0.466450 0.002893 0.884543
vn 0.004592 0.002290 0.999987
vn 0.719484 -0.004779 0.694493
vn 0.865875 -0.004599 0.500240
vn 0.857249 0.003504 0.514891
vn 0.999992 0.003881 0.001432
vn -0.866007 0.500031 0.000963
vn -0.866021 0.500007 -0.000963
vn -0.999991 0.003964 -0.001279
vn -0.707107 0.707106 0.000953
vn -0.707107 0.707106 -0.000953
vn -0.258726 0.965950 0.000905
vn -0.008189 0.999965 0.001460
vn -0.008184 0.999965 -0.001461
vn -0.258726 0.965950 -0.000904
vn -0.004632 0.865375 0.501103
vn 0.003587 0.856500 0.516135
vn 0.003872 0.999991 0.001448
vn -0.004823 0.719747 0.694220
vn 0.002859 0.465368 0.885113
vn -0.006569 0.266743 0.963745
vn 0.001796 0.003709 0.999992
vn 0.254789 0.966996 0.001349
vn 0.254058 0.967188 -0.001321
vn 0.003852 0.999992 -0.001448
vn 0.491795 0.870710 0.001340
vn 0.491130 0.871085 -0.001321
vn 0.693672 0.720290 0.001614
vn 0.693661 0.720300 -0.001615
vn 0.595109 0.616916 0.515034
vn 0.597529 0.614952 0.514580
vn 0.697602 0.716484 0.001615
vn 0.334915 0.348674 0.875362
vn 0.339040 0.347309 0.874316
vn 0.860569 0.509331 0.001326
vn 0.860583 0.509308 -0.001279
vn 0.697603 0.716483 -0.001613
vn 0.964531 0.263968 0.001329
vn 0.964524 0.263994 -0.001281
vn 0.999992 0.003884 -0.001430
vn -0.965996 0.002798 -0.258541
vn -0.965997 -0.002802 -0.258540
vn -0.707109 0.002954 -0.707099
vn -0.707109 0.002953 -0.707099
vn -0.707109 -0.002953 -0.707099
vn -0.707109 -0.002953 -0.707099
vn -0.258532 0.002800 -0.965999
vn -0.007875 0.003682 -0.999962
vn -0.007874 -0.003981 -0.999961
vn -0.258530 -0.002802 -0.965999
vn -0.006647 0.264426 -0.964383
vn 0.002776 0.463213 -0.886243
vn 0.001778 0.003681 -0.999992
vn -0.005049 0.717341 -0.696703
vn -0.004858 0.863906 -0.503629
vn 0.003428 0.855176 -0.518327
vn 0.333021 0.346711 -0.876863
vn 0.337486 0.345907 -0.875472
vn 0.004567 0.002278 -0.999987
vn 0.594014 0.615886 -0.517525
vn 0.596523 0.614179 -0.516667
vn 0.464322 0.002694 -0.885663
vn 0.264516 -0.006389 -0.964360
vn 0.005002 -0.005213 -0.999974
vn 0.855959 0.003251 -0.517034
vn 0.864429 -0.004812 -0.502731
vn 0.717110 -0.004991 -0.696942
vn 0.000000 -0.999999 -0.001285
vn -0.000000 -0.866025 -0.500001
vn 0.005883 -0.866095 -0.499844
vn -0.000000 -0.499998 -0.866027
vn 0.005833 -0.707093 -0.707097
vn -0.000000 -0.004532 -0.999990
vn 0.005535 -0.258266 -0.966058
vn 0.005881 -0.866096 0.499843
vn 0.005533 -0.258266 0.966058
vn 0.005830 -0.707093 0.707096
vn -0.005538 -0.966059 -0.258263
vn -0.005831 -0.707090 -0.707100
vn -0.005886 -0.499904 -0.866061
vn -0.946105 -0.229003 0.229006
vn -0.707840 -0.499482 0.499480
vn -0.499479 -0.707842 0.499480
vn -0.229007 -0.946103 0.229007
vn -0.499479 -0.499481 0.707842
vn -0.229007 -0.229007 0.946103
vn 0.228786 -0.946122 0.229149
vn 0.499252 -0.707877 0.499657
vn 0.707796 -0.499323 0.499701
vn 0.946223 -0.228688 0.228830
vn 0.499077 -0.499557 0.708071
vn 0.228943 -0.229162 0.946081
vn -0.228649 0.946240 0.228802
vn -0.499303 0.707804 0.499709
vn -0.707882 0.499247 0.499655
vn -0.946125 0.228770 0.229154
vn -0.499560 0.499046 0.708091
vn -0.229176 0.228943 0.946078
vn 0.475413 0.768720 0.427846
vn 0.193078 0.882925 0.427977
vn 0.239925 0.593601 0.768163
vn 0.882080 0.202747 0.425240
vn 0.759317 0.492665 0.425111
vn 0.589360 0.249369 0.768420
vn -0.229226 0.228982 -0.946056
vn -0.499611 0.499083 -0.708029
vn -0.707887 0.499319 -0.499576
vn -0.946113 0.228828 -0.229144
vn -0.499368 0.707804 -0.499646
vn -0.228701 0.946233 -0.228779
vn 0.242807 0.589146 -0.770683
vn 0.196729 0.880325 -0.431655
vn 0.478992 0.765501 -0.429623
vn 0.879713 0.201531 -0.430686
vn 0.583807 0.247020 -0.773402
vn 0.756792 0.491814 -0.430563
vn -0.229009 -0.946103 -0.229008
vn -0.499479 -0.707840 -0.499483
vn -0.707842 -0.499476 -0.499483
vn -0.946102 -0.229010 -0.229011
vn -0.499475 -0.499479 -0.707846
vn -0.229034 -0.229007 -0.946097
vn 0.946212 -0.228747 -0.228817
vn 0.707801 -0.499379 -0.499639
vn 0.499317 -0.707884 -0.499583
vn 0.228846 -0.946112 -0.229134
vn 0.499109 -0.499598 -0.708020
vn 0.229000 -0.229189 -0.946061
s 1
g Wall_HP
usemtl initialShadingGroup
f 3/1/1 2/38/2 77/105/3 85/30/4
f 2/38/2 1/37/5 78/106/6 77/105/3
f 1/37/7 9/33/8 79/9/9 78/106/10
f 6/3/11 5/41/12 11/45/13 10/19/14
f 5/41/12 4/39/15 12/47/16 11/45/13
f 4/40/15 3/1/1 13/2/17 12/48/16
f 9/33/8 8/43/18 26/60/19 25/34/20
f 8/44/18 7/42/21 27/61/22 26/59/19
f 7/42/23 6/3/11 28/6/24 27/61/25
f 16/5/26 15/50/27 90/117/28 98/15/29
f 15/50/30 14/49/31 91/118/32 90/117/33
f 14/49/31 22/4/34 92/17/35 91/118/32
f 19/20/36 18/53/37 47/78/38 46/7/39
f 18/53/40 17/51/41 48/80/42 47/78/38
f 17/52/41 16/5/26 49/8/43 48/79/42
f 25/34/20 24/58/44 53/84/45 52/35/46
f 24/58/44 23/57/47 54/85/48 53/84/45
f 23/57/49 31/22/50 55/10/51 54/85/52
f 31/22/50 30/63/53 35/68/54 34/23/55
f 30/64/53 29/62/56 36/69/57 35/67/54
f 29/62/58 28/6/24 37/21/59 36/69/57
f 34/23/55 33/66/60 62/92/61 61/11/62
f 33/66/60 32/65/63 63/93/64 62/92/61
f 32/65/63 40/24/65 64/12/66 63/93/64
f 40/24/65 39/71/67 44/76/68 43/25/69
f 39/72/67 38/70/70 45/77/71 44/75/68
f 38/70/70 37/21/59 46/7/39 45/77/71
f 43/25/69 42/74/72 74/103/73 73/13/74
f 42/74/72 41/73/75 75/104/76 74/103/73
f 41/73/75 49/8/43 76/14/77 75/104/76
f 52/35/46 51/82/78 80/108/79 79/9/9
f 51/83/80 50/81/81 81/109/82 80/107/83
f 50/81/84 58/26/85 82/36/86 81/109/87
f 58/26/85 57/87/88 59/90/89 67/27/90
f 57/88/91 56/86/92 60/91/93 59/89/89
f 56/86/92 55/10/51 61/11/62 60/91/93
f 67/27/90 66/95/94 71/101/95 70/28/96
f 66/96/94 65/94/97 72/102/98 71/100/95
f 65/94/97 64/12/66 73/13/74 72/102/98
f 70/28/96 69/99/99 96/122/100 95/18/101
f 69/99/99 68/97/102 97/124/103 96/122/104
f 68/98/102 76/14/77 98/15/29 97/123/103
f 89/16/105 88/116/106 93/120/107 92/17/35
f 88/115/106 87/113/108 94/121/109 93/119/107
f 87/113/108 86/29/110 95/18/101 94/121/111
f 6/3/11 10/19/14 37/21/59 28/6/24
f 10/19/14 19/20/36 46/7/39 37/21/59
f 31/22/50 34/23/55 61/11/62 55/10/51
f 40/24/65 43/25/69 73/13/74 64/12/66
f 58/26/85 67/27/90 86/29/110 82/36/86
f 67/27/90 70/28/96 95/18/101 86/29/110
f 85/30/4 89/31/105 13/2/17 3/1/1
f 89/16/105 92/17/35 22/4/34 13/32/17
f 16/5/26 98/15/29 76/14/77 49/8/43
f 79/9/9 9/33/8 25/34/20 52/35/46
f 12/46/16 13/32/17 22/4/34 21/55/112
f 10/19/14 11/45/13 20/54/113 19/20/36
f 11/45/13 12/47/16 21/56/112 20/54/114
f 85/30/4 84/111/115 88/114/106 89/31/105
f 84/112/116 83/110/117 87/113/108 88/115/106
f 83/110/117 82/36/86 86/29/110 87/113/108
f 8/43/18 9/33/8 1/37/7 99/126/118
f 99/126/119 1/37/5 2/38/2 100/128/120
f 2/38/2 3/1/1 4/40/15 100/128/121
f 100/127/120 4/39/15 5/41/12 101/129/122
f 5/41/12 6/3/11 7/42/23 101/129/123
f 101/129/122 7/42/21 8/44/18 99/125/119
f 99/125/119 100/127/120 101/129/122
f 21/55/112 22/4/34 14/49/31 102/131/124
f 102/131/125 14/49/31 15/50/30 103/133/126
f 15/50/27 16/5/26 17/52/41 103/133/127
f 103/132/126 17/51/41 18/53/40 104/134/128
f 18/53/37 19/20/36 20/54/113 104/134/129
f 104/134/128 20/54/114 21/56/112 102/130/125
f 102/130/125 103/132/126 104/134/128
f 30/63/53 31/22/50 23/57/49 105/136/130
f 105/136/131 23/57/47 24/58/44 106/138/132
f 24/58/44 25/34/20 26/60/19 106/138/133
f 106/137/132 26/59/19 27/61/22 107/139/134
f 27/61/25 28/6/24 29/62/58 107/139/135
f 107/139/134 29/62/56 30/64/53 105/135/131
f 105/135/131 106/137/132 107/139/134
f 39/71/67 40/24/65 32/65/63 108/141/136
f 108/141/136 32/65/63 33/66/60 109/143/137
f 33/66/60 34/23/55 35/68/54 109/143/137
f 109/142/137 35/67/54 36/69/57 110/144/138
f 36/69/57 37/21/59 38/70/70 110/144/138
f 110/144/138 38/70/70 39/72/67 108/140/136
f 108/140/136 109/142/137 110/144/138
f 48/79/42 49/8/43 41/73/75 111/146/139
f 111/146/139 41/73/75 42/74/72 112/148/140
f 42/74/72 43/25/69 44/76/68 112/148/140
f 112/147/140 44/75/68 45/77/71 113/149/141
f 45/77/71 46/7/39 47/78/38 113/149/141
f 113/149/141 47/78/38 48/80/42 111/145/139
f 111/145/139 112/147/140 113/149/141
f 57/87/88 58/26/85 50/81/84 114/151/142
f 114/151/143 50/81/81 51/83/80 115/153/144
f 51/82/78 52/35/46 53/84/45 115/152/145
f 115/152/144 53/84/45 54/85/48 116/154/146
f 54/85/52 55/10/51 56/86/92 116/154/147
f 116/154/146 56/86/92 57/88/91 114/150/143
f 114/150/143 115/152/144 116/154/146
f 66/95/94 67/27/90 59/90/89 117/156/148
f 117/155/148 59/89/89 60/91/93 118/157/149
f 60/91/93 61/11/62 62/92/61 118/157/149
f 118/157/149 62/92/61 63/93/64 119/158/150
f 63/93/64 64/12/66 65/94/97 119/158/150
f 119/158/150 65/94/97 66/96/94 117/155/148
f 117/155/148 118/157/149 119/158/150
f 75/104/76 76/14/77 68/98/102 120/159/151
f 120/160/151 68/97/102 69/99/99 121/162/152
f 69/99/99 70/28/96 71/101/95 121/162/152
f 121/161/152 71/100/95 72/102/98 122/163/153
f 72/102/98 73/13/74 74/103/73 122/163/153
f 122/163/153 74/103/73 75/104/76 120/159/151
f 120/159/151 121/161/152 122/163/153
f 84/111/115 85/30/4 77/105/3 123/165/154
f 123/165/155 77/105/3 78/106/6 124/167/156
f 78/106/10 79/9/9 80/108/79 124/167/157
f 124/166/156 80/107/83 81/109/82 125/168/158
f 81/109/87 82/36/86 83/110/117 125/168/159
f 125/168/158 83/110/117 84/112/116 123/164/155
f 123/164/155 124/166/156 125/168/158
f 97/123/103 98/15/29 90/117/28 126/170/160
f 126/170/161 90/117/33 91/118/32 127/172/162
f 91/118/32 92/17/35 93/120/107 127/172/163
f 127/171/162 93/119/107 94/121/109 128/173/164
f 94/121/111 95/18/101 96/122/100 128/173/165
f 128/173/164 96/122/104 97/124/103 126/169/161
f 126/169/161 127/171/162 128/173/164
